HIERARCHY
ROOT hip
{
  OFFSET 0 0 0
  CHANNELS 6 Xposition Yposition Zposition Zrotation Yrotation Xrotation
  JOINT abdomen
  {
    OFFSET 0 20.6881 -0.73152
    CHANNELS 3 Zrotation Xrotation Yrotation
    JOINT chest
    {
      OFFSET 0 11.7043 -0.48768
      CHANNELS 3 Zrotation Xrotation Yrotation
      JOINT neck
      {
        OFFSET 0 22.1894 -2.19456
        CHANNELS 3 Zrotation Xrotation Yrotation
        JOINT head
        {
          OFFSET -0.24384 7.07133 1.2192
          CHANNELS 3 Zrotation Xrotation Yrotation
          JOINT leftEye
          {
            OFFSET 4.14528 8.04674 8.04672
            CHANNELS 3 Zrotation Xrotation Yrotation
            End Site
            {
              OFFSET 1 0 0
            }
          }
          JOINT rightEye
          {
            OFFSET -3.6576 8.04674 8.04672
            CHANNELS 3 Zrotation Xrotation Yrotation
            End Site
            {
              OFFSET 1 0 0
            }
          }
        }
      }
      JOINT rCollar
      {
        OFFSET -2.68224 19.2634 -4.8768
        CHANNELS 3 Zrotation Xrotation Yrotation
        JOINT rShldr
        {
          OFFSET -8.77824 -1.95073 1.46304
          CHANNELS 3 Zrotation Xrotation Yrotation
          JOINT rForeArm
          {
            OFFSET -28.1742 -1.7115 0.48768
            CHANNELS 3 Zrotation Xrotation Yrotation
            JOINT rHand
            {
              OFFSET -22.5879 0.773209 7.07136
              CHANNELS 3 Zrotation Xrotation Yrotation
              JOINT rThumb1
              {
                OFFSET -1.2192 -0.487915 3.41376
                CHANNELS 3 Zrotation Xrotation Yrotation
                JOINT rThumb2
                {
                  OFFSET -3.37035 -0.52449 3.41376
                  CHANNELS 3 Zrotation Xrotation Yrotation
                  End Site
                  {
                    OFFSET -1.78271 -1.18214 1.43049
                  }
                }
              }
              JOINT rIndex1
              {
                OFFSET -7.75947 0.938293 5.60832
                CHANNELS 3 Zrotation Xrotation Yrotation
                JOINT rIndex2
                {
                  OFFSET -2.54057 -0.884171 1.56538
                  CHANNELS 3 Zrotation Xrotation Yrotation
                  End Site
                  {
                    OFFSET -1.62519 -0.234802 1.16502
                  }
                }
              }
              JOINT rMid1
              {
                OFFSET -8.24714 1.18213 3.41376
                CHANNELS 3 Zrotation Xrotation Yrotation
                JOINT rMid2
                {
                  OFFSET -3.10165 -0.590103 1.0647
                  CHANNELS 3 Zrotation Xrotation Yrotation
                  End Site
                  {
                    OFFSET -2.48547 -0.328903 0.83742
                  }
                }
              }
              JOINT rRing1
              {
                OFFSET -8.82822 0.546677 1.51678
                CHANNELS 3 Zrotation Xrotation Yrotation
                JOINT rRing2
                {
                  OFFSET -2.60934 -0.819778 -0.0198488
                  CHANNELS 3 Zrotation Xrotation Yrotation
                  End Site
                  {
                    OFFSET -2.33842 -0.294052 0.168128
                  }
                }
              }
              JOINT rPinky1
              {
                OFFSET -8.27202 -0.0477905 -0.4584
                CHANNELS 3 Zrotation Xrotation Yrotation
                JOINT rPinky2
                {
                  OFFSET -1.82734 -0.647385 -0.700984
                  CHANNELS 3 Zrotation Xrotation Yrotation
                  End Site
                  {
                    OFFSET -1.69225 -0.51767 -0.607171
                  }
                }
              }
            }
          }
        }
      }
      JOINT lCollar
      {
        OFFSET 2.68224 19.2634 -4.8768
        CHANNELS 3 Zrotation Xrotation Yrotation
        JOINT lShldr
        {
          OFFSET 8.77824 -1.95073 1.46304
          CHANNELS 3 Zrotation Xrotation Yrotation
          JOINT lForeArm
          {
            OFFSET 28.1742 -1.7115 0.48768
            CHANNELS 3 Zrotation Xrotation Yrotation
            JOINT lHand
            {
              OFFSET 22.5879 0.773209 7.07136
              CHANNELS 3 Zrotation Xrotation Yrotation
              JOINT lThumb1
              {
                OFFSET 1.2192 -0.487915 3.41376
                CHANNELS 3 Zrotation Xrotation Yrotation
                JOINT lThumb2
                {
                  OFFSET 3.37035 -0.52449 3.41376
                  CHANNELS 3 Zrotation Xrotation Yrotation
                  End Site
                  {
                    OFFSET 1.78271 -1.18214 1.43049
                  }
                }
              }
              JOINT lIndex1
              {
                OFFSET 7.75947 0.938293 5.60832
                CHANNELS 3 Zrotation Xrotation Yrotation
                JOINT lIndex2
                {
                  OFFSET 2.54057 -0.884171 1.56538
                  CHANNELS 3 Zrotation Xrotation Yrotation
                  End Site
                  {
                    OFFSET 1.62519 -0.234802 1.16502
                  }
                }
              }
              JOINT lMid1
              {
                OFFSET 8.24714 1.18213 3.41376
                CHANNELS 3 Zrotation Xrotation Yrotation
                JOINT lMid2
                {
                  OFFSET 3.10165 -0.590103 1.0647
                  CHANNELS 3 Zrotation Xrotation Yrotation
                  End Site
                  {
                    OFFSET 2.48547 -0.328903 0.83742
                  }
                }
              }
              JOINT lRing1
              {
                OFFSET 8.82822 0.546677 1.51678
                CHANNELS 3 Zrotation Xrotation Yrotation
                JOINT lRing2
                {
                  OFFSET 2.60934 -0.819778 -0.0198488
                  CHANNELS 3 Zrotation Xrotation Yrotation
                  End Site
                  {
                    OFFSET 2.33842 -0.294052 0.168128
                  }
                }
              }
              JOINT lPinky1
              {
                OFFSET 8.27202 -0.0477905 -0.4584
                CHANNELS 3 Zrotation Xrotation Yrotation
                JOINT lPinky2
                {
                  OFFSET 1.82734 -0.647385 -0.700984
                  CHANNELS 3 Zrotation Xrotation Yrotation
                  End Site
                  {
                    OFFSET 1.69225 -0.51767 -0.607171
                  }
                }
              }
            }
          }
        }
      }
    }
  }
  JOINT rButtock
  {
    OFFSET -8.77824 4.35084 1.2192
    CHANNELS 3 Zrotation Xrotation Yrotation
    JOINT rThigh
    {
      OFFSET 0 -1.70687 -2.19456
      CHANNELS 3 Zrotation Xrotation Yrotation
      JOINT rShin
      {
        OFFSET 0 -36.8199 0.73152
        CHANNELS 3 Zrotation Xrotation Yrotation
        JOINT rFoot
        {
          OFFSET 0.73152 -45.1104 -5.12064
          CHANNELS 3 Zrotation Xrotation Yrotation
          End Site
          {
            OFFSET -1.1221 -3.69964 12.103
          }
        }
      }
    }
  }
  JOINT lButtock
  {
    OFFSET 8.77824 4.35084 1.2192
    CHANNELS 3 Zrotation Xrotation Yrotation
    JOINT lThigh
    {
      OFFSET 0 -1.70687 -2.19456
      CHANNELS 3 Zrotation Xrotation Yrotation
      JOINT lShin
      {
        OFFSET 0 -36.8199 0.73152
        CHANNELS 3 Zrotation Xrotation Yrotation
        JOINT lFoot
        {
          OFFSET -0.73152 -45.1104 -5.12064
          CHANNELS 3 Zrotation Xrotation Yrotation
          End Site
          {
            OFFSET 1.1221 -3.69964 12.103
          }
        }
      }
    }
  }
}
MOTION
Frames:	7
Frame Time:	0.03333
12.376 26.500400000000003 16.0725 3.844207 -75.329734 -8.399358 -6.640703 38.058196 3.886842 -3.900024 -21.161187 9.587825 -8.563312 16.443354 -88.409113 29.068215 14.129549 56.878485 0.005425 -0.0 -0.001687 -0.00063 -0.0 0.003906 0.162695 -0.990123 -0.218137 -152.725311 75.889427 169.342107 62.565711 -16.449747 154.70518 -158.14591 65.861887 137.879602 88.928399 -50.830306 37.599916 -59.079086 30.960949 19.342415 88.792502 -75.498439 40.048618 -55.412467 53.624557 45.422451 -0.219698 0.638299 0.124297 3.168675 0.194516 -0.003852 -145.111757 -0.628026 -178.932391 11.97632 29.599482 -5.63882 -26.565272 -38.860419 -25.606448 -23.844594 -41.266574 -25.388889 155.460091 -3.227624 -161.778042 -57.961973 68.283708 52.530875 165.054677 42.700822 83.916745 5.924489 25.537446 -1.372238 -173.306642 -23.518724 -87.871252 -42.936785 -74.693891 -29.578402 -10.747428 -19.047994 4.72338 85.330363 47.639579 -68.6479 0.338616 0.982133 -0.189081 -11.36719 -24.937846 1.563333 145.121068 0.22738 179.197966 155.510242 0.828861 179.330755 145.175774 12.067613 141.822017 10.055023 -24.007455 12.506188 -0.0 -0.001642 -0.001609 132.539461 0.195593 -180.0 156.211269 2.649434 -83.128965 -118.010586 -34.161766 0.336666 -0.000103 0.001595 0.000133 -131.888444 16.763528 -16.669887 166.660731 5.043253 23.367613 120.568205 14.81848 150.035272
12.6847 29.857400000000002 15.8726 4.407105 -75.618917 -5.214302 -5.817752 32.799701 -18.573751 2.652682 -19.750456 30.163542 -5.729871 23.213249 -123.520851 25.414347 28.670984 87.298821 -0.001239 0.0 -0.0003 0.004489 -0.0 -0.000224 3.1916 -25.838902 -5.074514 -77.475895 -85.046958 -91.564862 144.877094 13.802946 -63.142528 -73.341332 78.378066 58.230462 -164.887291 -2.560198 89.606037 -27.351124 -31.975675 8.049349 -0.326847 0.530257 0.185254 4.526604 9.665661 1.45297 -57.867845 59.218504 50.524901 -163.824169 -7.033108 143.431115 -145.100085 -1.521299 -178.650552 -154.033062 -12.517889 -177.505595 -146.206163 15.405722 -142.731071 -148.427006 14.081291 -142.236503 149.850808 22.60144 -154.913076 7.479438 17.654691 18.655696 -163.606636 -53.802366 90.929295 14.656947 45.344407 -4.910405 166.744848 -4.418709 -89.779471 -171.385571 -23.903751 -94.068396 148.885917 -12.610273 -120.243849 -77.219698 -68.31869 -26.505101 -23.90465 -61.333673 -1.400664 4.932951 20.753103 -4.366584 145.100364 -1.521311 178.650574 79.165171 87.680341 -92.61052 150.575257 31.033276 146.366385 -16.192848 42.806469 -6.054953 -0.000446 -0.000625 0.000574 121.824899 -8.97459 -180.0 161.848079 0.454636 45.164771 -1.82093 31.81581 -113.109542 -0.000989 0.000619 -0.000494 -120.86284 15.752701 99.215476 173.314436 -24.153645 -93.457883 30.016622 8.808155 51.130723
12.6739 34.311 15.662499999999998 6.768929 -75.696592 -4.680455 -7.732928 28.896165 3.471001 -4.672948 -17.772698 4.36327 -8.023472 22.80605 -107.884026 31.784218 22.713297 69.43617 -0.002551 -0.0 0.000894 0.003422 0.0 0.001815 2.459642 -18.216386 -3.668957 -72.891146 -86.788039 -89.278338 153.063249 28.836421 -64.706347 -32.91224 69.438712 20.494175 -178.927428 -16.453745 89.421646 148.391543 -48.822448 102.997064 73.421118 -73.570568 26.564415 175.370856 -50.938357 104.271631 -36.036565 51.722921 29.832546 167.995379 -64.090367 133.009449 -0.022889 -1.725865 -0.543628 -6.490186 62.756873 19.320357 -144.86082 11.07902 -141.543726 -153.357472 29.736276 -145.083856 14.147994 43.061622 -15.996339 96.534758 43.476194 -83.324909 -28.881271 58.034324 162.739873 -171.365025 -10.867357 -144.990395 -81.276743 -49.99474 -32.240202 22.252746 -13.721148 18.856935 0.328163 0.529648 -0.18678 65.769262 48.401451 -50.660404 -44.048458 -75.294836 -17.451414 -179.966636 -48.666349 -141.235648 70.380036 -72.130723 87.279622 -14.023763 27.428992 0.842374 -12.631955 42.933973 -10.534872 164.391998 65.02399 149.094276 179.992081 75.75003 0.005418 -109.65424 -27.410098 -52.108624 -145.611491 7.996814 82.413732 89.837753 23.533934 -4.518577 -0.0 -0.000733 -0.001789 118.402501 -43.691261 -69.517426 -177.070891 -36.748446 5.601369 -151.221272 -7.975903 23.339011
12.4679 39.3583 15.4835 8.521525 -76.224754 -4.71395 -8.704266 26.208693 3.540957 -5.088829 -16.478304 1.298776 6.25034 27.318805 157.680266 -16.451768 37.978716 173.039843 -0.003323 -0.0 0.00075 -0.003759 0.0 -0.000706 -13.74472 42.431252 15.570194 94.628381 -83.479749 73.174502 -70.379831 -13.439051 142.856628 29.115402 -48.451276 20.412418 83.254202 -50.257531 33.616002 -91.864536 38.727714 54.60114 -11.065519 15.605426 7.220351 -66.704941 48.465984 49.881328 -169.089869 -33.247597 145.373505 172.494374 -59.033748 136.387397 0.003914 0.917201 0.290417 9.161973 12.716736 1.660307 -23.838638 -36.726546 -22.934005 38.569866 80.763438 -1.382435 82.106059 68.326119 -85.221432 109.716034 63.965796 -74.028102 146.258947 -10.120777 67.030188 -2.208056 -7.310953 -0.324807 -3.050347 -3.032774 0.388961 152.430241 -65.312746 -122.3442 50.386436 40.826301 -40.024741 -5.777312 1.242886 2.611962 0.056886 0.168019 -0.031899 -91.951149 -78.576515 -62.954746 145.118245 0.26849 179.210913 152.389039 -25.063781 175.331102 81.322309 -51.182897 79.741406 24.121359 -40.934597 26.133871 -0.000167 0.000641 -0.000167 108.453906 -38.989076 -161.944926 150.20768 -0.198467 98.040757 26.798138 18.081292 -168.558851 -179.979073 75.750447 -0.014319 -106.470176 -14.903833 -180.0 178.519229 -36.352356 91.424964 89.277562 71.103698 175.471976
12.25 44.520199999999996 15.3631 11.314695 -77.065547 -6.482451 -7.97603 23.188334 -63.341639 10.462221 -12.264777 66.308917 9.294093 15.170214 74.301806 -28.689591 -3.153139 -110.44567 -0.005145 0.0 -0.001153 0.000549 -0.0 -0.001503 -33.835323 -85.665937 -55.252273 5.98315 13.28782 2.036591 -109.453371 70.522483 -154.732998 -3.275133 23.380767 1.919826 -5.434309 5.264758 1.077219 -18.953707 16.797019 19.373961 10.746472 -19.048198 -4.724361 4.250691 13.122626 1.865913 -36.036761 51.722457 29.833678 5.344158 -5.83571 -0.604108 -70.381403 -72.128489 -87.281023 -67.462565 83.257171 85.218475 -0.000331 -0.000242 0.001812 -152.608122 30.519551 -147.435231 0.048344 0.292512 -0.064432 116.275582 3.946249 -122.1756 -166.852983 -75.278942 94.030304 10.063007 23.448701 -0.664966 172.671154 -10.349482 -89.93192 126.305029 13.264742 -61.086871 46.208475 39.653002 -36.318177 92.820508 48.990672 -69.133205 0.287263 0.832622 -0.160512 -3.170109 0.194674 0.001725 145.119441 0.267791 179.212376 156.346795 12.419552 -179.30217 -0.097276 0.258579 -0.091212 85.21407 -53.924865 84.732137 179.973305 75.750816 0.021964 -134.095433 -17.607513 -69.670584 -143.160967 4.137294 -76.911335 31.588908 10.925066 -174.68834 179.973305 75.750816 0.021964 -119.8689 -11.081268 -180.0 177.104154 -41.461936 127.912139 158.950272 29.85365 159.273477
12.1081 49.4925 15.1779 20.113618 -78.167968 -14.03694 -11.573527 21.600719 -62.545921 10.407516 -11.717453 62.197658 -1.687163 29.759436 -165.282817 4.474454 43.340444 130.363672 -0.001932 -0.0 0.00189 0.00352 -0.0 -0.00389 -29.160721 57.783098 31.550239 -159.995046 2.061898 161.460717 -155.026983 34.264293 -105.180865 -3.192366 20.282433 1.438436 8.271355 -8.262826 -0.681927 -136.994557 -36.851853 122.160175 2.324441 -3.86816 -1.259704 2.758942 12.636348 2.268917 -0.572853 1.647989 0.32285 5.176434 -5.861412 -0.704561 -75.673055 -72.117301 -92.828559 -65.1011 -82.302579 -91.0592 3.201912 9.00748 2.915332 -21.547246 -38.996711 -22.152239 142.973757 39.431452 -147.38962 -179.56805 -74.540373 131.555189 89.949303 -25.6537 -73.269294 -59.781032 -73.981004 -43.64164 -16.892591 -16.714411 0.117011 -3.105844 -16.003034 15.359405 152.465098 -19.22572 -121.474731 -46.149937 -55.000804 -0.520249 36.037121 51.72271 -29.832787 161.99275 -1.432621 -142.873308 145.106662 3.756659 -179.691242 148.37232 -43.214354 170.558331 126.798057 -26.620086 124.513233 147.603347 14.103265 142.555661 -179.984831 75.749905 -0.010379 -142.142026 -15.136614 71.431086 131.89689 17.412453 -8.985537 -68.856718 81.689922 -2.048723 -0.0 6.9e-05 0.001136 86.59406 -34.760403 -91.943428 178.834296 -59.616792 -71.713423 -127.450386 -64.817351 -10.867128
11.8728 53.9824 14.7496 33.877282 -79.243926 -25.965636 -16.499393 19.160739 -60.973798 10.321584 -10.81168 56.275961 -11.394127 15.436788 -56.548756 33.313965 -0.185072 25.769675 -0.000886 0.0 -0.001864 -0.00154 -0.0 0.000878 -13.743928 42.431425 15.569694 37.452643 -50.25292 28.007154 -114.63041 -27.862566 95.983971 93.740078 -68.257334 79.685206 -160.051838 2.213094 88.877638 169.646489 -25.5686 90.533792 -46.20846 39.653501 36.317562 -13.932956 26.672813 6.422773 2.099711 -6.305548 -1.080585 84.326065 -78.249822 55.70245 0.006834 1.772429 0.556041 9.562864 -62.554801 -9.181795 -135.457102 -12.622485 -132.840432 27.758978 67.097422 4.416087 153.589907 -75.693306 178.259626 -140.572771 49.405549 78.689863 -173.872347 -39.753776 -43.33139 174.07822 3.357341 -142.020693 -1.599572 -1.586784 0.224669 1.742112 1.745379 -0.383672 -2.325803 -3.867886 1.258941 6.413968 23.033803 -6.692949 -0.046635 -0.138688 0.027362 148.168693 31.621206 -134.529368 145.118188 0.267593 179.212841 154.175474 -12.523945 177.50448 0.290016 -0.753627 0.267614 -14.583354 41.798744 -8.477175 -179.98849 75.750975 -0.007876 -146.987123 -13.52024 94.933453 116.096275 4.49443 -84.204823 -109.99527 -16.112019 25.049091 -0.005356 -0.000988 -0.002678 75.222342 -36.678431 146.33286 106.023642 9.20159 -49.754766 -153.314833 -63.219695 90.662849
